<svg aria-hidden="true" style="position: absolute; width: 0; height: 0; overflow: hidden;" version="1.1" xmlns="http://www.w3.org/2000/svg" xmlns:xlink="http://www.w3.org/1999/xlink">
<defs>
<symbol id="icon-email" viewBox="0 0 32 32">
<path d="M24 8h-16c-1.1 0-1.99 0.9-1.99 2l-0.010 12c0 1.1 0.9 2 2 2h16c1.1 0 2-0.9 2-2v-12c0-1.1-0.9-2-2-2zM23.6 12.25l-7.070 4.42c-0.32 0.2-0.74 0.2-1.060 0l-7.070-4.42c-0.25-0.16-0.4-0.43-0.4-0.72 0-0.67 0.73-1.070 1.3-0.72l6.7 4.19 6.7-4.19c0.57-0.35 1.3 0.050 1.3 0.72 0 0.29-0.15 0.56-0.4 0.72z"></path>
</symbol>
<symbol id="icon-person" viewBox="0 0 32 32">
<path  d="M16 16c2.947 0 5.333-2.387 5.333-5.333s-2.387-5.333-5.333-5.333c-2.947 0-5.333 2.387-5.333 5.333s2.387 5.333 5.333 5.333zM16 18.667c-3.56 0-10.667 1.787-10.667 5.333v1.333c0 0.733 0.6 1.333 1.333 1.333h18.667c0.733 0 1.333-0.6 1.333-1.333v-1.333c0-3.547-7.107-5.333-10.667-5.333z"></path>
</symbol>
<symbol id="icon-twitter" viewBox="0 0 32 32">
<path fill="none" stroke="#02897a" style="stroke: var(--color2, #02897a)" stroke-linejoin="round" stroke-linecap="round" stroke-miterlimit="4" stroke-width="2.1333" d="M30.61 4.013c-1.277 0.901-2.691 1.589-4.187 2.040-0.803-0.923-1.87-1.578-3.057-1.875s-2.437-0.222-3.58 0.214c-1.143 0.436-2.125 1.213-2.812 2.226s-1.047 2.212-1.031 3.435v1.333c-2.343 0.061-4.665-0.459-6.759-1.513s-3.894-2.609-5.241-4.527c0 0-5.333 12 6.667 17.333-2.746 1.864-6.017 2.799-9.333 2.667 12 6.667 26.667 0 26.667-15.333-0.001-0.371-0.037-0.742-0.107-1.107 1.361-1.342 2.321-3.036 2.773-4.893v0z"></path>
</symbol>
<symbol id="icon-facebook" viewBox="0 0 32 32">
<path fill="none" stroke="#02897a" style="stroke: var(--color2, #02897a)" stroke-linejoin="round" stroke-linecap="round" stroke-miterlimit="4" stroke-width="2.0645" d="M23.715 3.097h-3.871c-1.711 0-3.352 0.68-4.562 1.89s-1.89 2.851-1.89 4.562v3.871h-3.871v5.161h3.871v10.323h5.161v-10.323h3.871l1.29-5.161h-5.161v-3.871c0-0.342 0.136-0.67 0.378-0.912s0.57-0.378 0.912-0.378h3.871v-5.161z"></path>
</symbol>
<symbol id="icon-instagram" viewBox="0 0 31 32">
<path fill="none"  style="stroke: var(--color2, #02897a)" stroke-linejoin="round" stroke-linecap="round" stroke-miterlimit="4" stroke-width="2.0645" d="M21.935 2.602h-12.903c-3.563 0-6.452 2.889-6.452 6.452v12.903c0 3.563 2.889 6.452 6.452 6.452h12.903c3.563 0 6.452-2.888 6.452-6.452v-12.903c0-3.563-2.888-6.452-6.452-6.452z"></path>
<path fill="none"  style="stroke: var(--color2, #02897a)" stroke-linejoin="round" stroke-linecap="round" stroke-miterlimit="4" stroke-width="2.0645" d="M20.645 14.692c0.159 1.074-0.024 2.171-0.524 3.134s-1.291 1.745-2.261 2.233-2.069 0.658-3.14 0.485c-1.072-0.172-2.062-0.678-2.83-1.446s-1.274-1.758-1.446-2.83c-0.172-1.072-0.003-2.171 0.485-3.14s1.27-1.761 2.233-2.261 2.060-0.683 3.134-0.524c1.095 0.162 2.11 0.673 2.893 1.456s1.293 1.797 1.456 2.893z"></path>
<path fill="none"  style="stroke: var(--color2, #02897a)" stroke-linejoin="round" stroke-linecap="round" stroke-miterlimit="4" stroke-width="2.0645" d="M22.581 8.408h0.013"></path>
</symbol>
</defs>
</svg>
